<?xml version="1.0" standalone="no"?>
<!DOCTYPE svg PUBLIC "-//W3C//DTD SVG 20010904//EN"
 "http://www.w3.org/TR/2001/REC-SVG-20010904/DTD/svg10.dtd">
<svg version="1.0" xmlns="http://www.w3.org/2000/svg"
 width="1280.000000pt" height="719.000000pt" viewBox="0 0 1280.000000 719.000000"
 preserveAspectRatio="xMidYMid meet">
<g transform="translate(0.000000,719.000000) scale(0.100000,-0.100000)"
fill="#000000" stroke="none">
<path d="M6038 7185 c-11 -11 -234 -36 -271 -30 -56 8 -143 -42 -238 -135
-139 -138 -170 -249 -118 -432 13 -46 12 -48 -14 -76 -31 -32 -32 -39 -13
-113 33 -124 55 -168 96 -189 48 -24 85 -72 99 -127 14 -52 -2 -163 -28 -193
-9 -10 -50 -37 -92 -59 -141 -73 -288 -177 -476 -337 -67 -57 -130 -118 -138
-135 -9 -17 -25 -81 -35 -142 -16 -93 -27 -127 -66 -201 -45 -88 -46 -92 -40
-156 7 -75 4 -80 -100 -221 -87 -118 -105 -161 -115 -285 -4 -57 -13 -113 -19
-124 -14 -26 -10 -32 94 -155 43 -49 100 -120 129 -158 31 -40 57 -65 65 -62
7 3 35 -6 62 -20 27 -14 63 -25 79 -25 38 0 199 -106 223 -146 36 -63 -31
-628 -89 -750 -14 -28 -15 -39 -5 -54 17 -28 15 -84 -9 -170 -15 -58 -22 -128
-30 -305 -5 -126 -15 -261 -22 -300 -18 -94 -8 -141 36 -181 42 -39 92 -50
250 -60 65 -4 124 -12 133 -19 15 -10 15 -30 5 -201 -15 -235 -36 -422 -57
-494 -11 -37 -18 -123 -23 -265 -6 -169 -40 -513 -57 -573 -3 -9 -93 -12 -409
-12 l-405 0 -31 42 c-17 24 -45 70 -61 103 -17 33 -36 63 -42 67 -6 4 -55 8
-109 8 -54 0 -108 5 -120 11 -12 7 -45 34 -74 60 -28 27 -59 49 -67 49 -9 0
-28 25 -45 57 -16 32 -61 98 -100 147 -39 49 -71 93 -71 99 0 5 29 37 65 70
110 100 121 148 55 257 -47 78 -92 197 -113 299 -9 40 -22 80 -30 89 -8 10
-17 37 -20 62 -3 25 -22 96 -41 158 -20 63 -36 118 -36 123 0 5 12 15 26 22
l27 12 -24 5 c-20 5 -24 13 -27 50 -1 25 -12 100 -23 168 -12 69 -19 143 -16
169 3 28 27 89 61 157 41 81 56 122 56 152 0 35 14 62 90 179 99 152 124 212
124 295 1 73 -23 119 -130 255 -123 156 -151 225 -130 322 7 29 1 38 -72 116
-81 85 -112 131 -112 165 0 28 64 84 141 122 l71 35 53 120 c28 66 104 224
168 350 l116 230 55 33 c50 29 56 37 56 66 0 17 9 49 20 71 11 22 20 46 19 55
0 8 -36 41 -79 72 -98 71 -118 98 -100 136 7 15 18 76 25 135 13 106 30 152
61 164 22 8 25 0 11 -36 -11 -29 -10 -34 7 -47 27 -19 70 -18 114 5 24 12 44
16 57 10 34 -13 134 -10 171 6 123 51 195 192 153 302 -38 100 -179 152 -284
104 -48 -22 -94 -72 -102 -113 -8 -42 -31 -47 -61 -13 -20 23 -23 35 -18 67 7
43 -4 72 -34 88 -27 15 -48 3 -60 -36 -14 -43 -35 -43 -56 -2 -27 52 -123 147
-198 196 -65 42 -70 44 -106 33 -20 -6 -53 -11 -72 -11 -68 0 -99 -13 -155
-63 -51 -47 -60 -51 -113 -55 -78 -6 -210 13 -265 38 -37 17 -65 20 -179 20
-110 0 -136 3 -136 14 0 28 292 286 324 286 9 0 16 4 16 9 0 5 20 33 45 63 25
29 49 64 52 77 7 30 -23 90 -54 104 -28 12 -41 3 -228 -169 -215 -197 -303
-275 -381 -337 -62 -50 -77 -57 -115 -57 -24 0 -71 -12 -104 -25 -107 -44
-143 -29 -109 46 17 39 17 42 -1 87 -10 26 -33 99 -51 162 -45 154 -85 234
-136 270 -22 16 -49 32 -59 35 -10 4 -21 18 -25 33 -10 52 -33 91 -61 106 -16
8 -61 50 -100 94 -94 104 -112 111 -217 88 -45 -10 -130 -24 -191 -32 -195
-26 -271 -57 -344 -140 -87 -100 -115 -200 -109 -395 l4 -134 37 -53 c37 -55
57 -107 57 -153 0 -33 41 -54 142 -74 45 -8 77 -20 85 -31 8 -11 13 -49 13
-100 l0 -81 -108 -104 c-111 -108 -179 -152 -284 -185 -54 -16 -58 -20 -82
-74 -14 -31 -29 -88 -33 -126 -8 -66 -9 -69 -35 -72 -23 -3 -34 -16 -69 -83
-23 -43 -54 -90 -69 -102 -15 -13 -35 -47 -45 -78 -13 -39 -32 -67 -71 -104
-40 -39 -56 -62 -68 -104 -9 -30 -16 -65 -16 -77 0 -14 -17 -39 -45 -66 -62
-57 -96 -135 -139 -314 -19 -84 -53 -199 -75 -257 -22 -58 -50 -143 -61 -191
l-21 -85 56 -71 c74 -92 98 -104 204 -102 56 2 100 -3 133 -14 72 -24 119 -13
206 46 47 32 98 57 145 70 173 49 177 50 177 70 0 22 124 159 135 149 6 -7 46
-173 71 -297 27 -138 17 -203 -66 -428 -63 -170 -98 -295 -106 -373 -7 -63 -7
-62 59 -182 31 -54 39 -83 51 -172 13 -107 14 -108 59 -156 54 -58 61 -80 54
-164 -4 -34 -15 -188 -26 -342 -49 -676 -101 -1095 -176 -1436 -14 -62 -25
-113 -25 -114 0 -1 -183 -5 -407 -8 -225 -4 -420 -9 -436 -13 -18 -4 -30 -15
-35 -33 -11 -40 -8 -209 4 -221 7 -7 26 -7 65 2 39 9 240 13 749 14 382 1
1327 5 2100 9 909 5 1794 3 2505 -4 819 -9 1209 -9 1525 0 652 17 3025 23
3610 10 494 -12 669 -8 835 19 53 9 188 8 545 -1 312 -8 523 -9 615 -3 l140 9
19 60 c18 57 18 63 2 124 -9 36 -19 67 -22 70 -7 7 -348 8 -716 1 -178 -3
-280 -1 -287 5 -21 22 -57 326 -101 860 -12 138 -27 304 -35 370 -13 121 -10
145 21 145 7 0 29 14 49 31 42 37 59 90 74 234 26 230 141 762 217 1000 100
311 106 342 108 500 1 96 -5 177 -18 257 l-19 117 44 57 c97 127 160 184 280
257 l27 16 -14 58 c-14 59 -19 199 -8 227 9 23 31 19 50 -9 56 -86 186 -87
261 -2 77 88 60 198 -38 248 -42 21 -60 17 -91 -20 -23 -27 -55 -27 -63 0 -5
14 0 28 14 43 29 30 27 42 -13 87 -37 40 -47 69 -66 187 -8 51 -19 82 -37 102
-29 36 -36 36 -97 10 -55 -25 -81 -16 -91 32 -4 18 -25 70 -46 116 -46 96
-121 178 -216 237 -35 21 -63 43 -63 50 0 16 65 122 104 170 18 22 68 78 111
125 42 47 102 115 132 153 30 38 71 76 93 87 25 13 42 30 46 45 12 47 1 55
-74 55 -38 0 -82 2 -98 5 -27 5 -32 1 -62 -52 -18 -32 -52 -84 -75 -115 -40
-53 -224 -263 -291 -333 l-29 -29 -33 38 c-45 53 -74 133 -74 207 0 68 8 86
60 146 30 35 39 55 48 112 7 38 12 96 12 127 0 57 -1 59 -50 105 -41 39 -54
58 -65 104 -9 31 -13 61 -10 66 15 23 -71 122 -155 179 -30 21 -98 59 -150 85
l-95 48 -120 -6 c-230 -12 -302 -52 -385 -216 -80 -161 -103 -238 -98 -326 4
-63 12 -89 53 -172 26 -54 69 -163 97 -243 27 -80 58 -160 69 -177 11 -18 18
-37 15 -42 -9 -15 -153 -49 -281 -67 -66 -9 -143 -25 -172 -36 -68 -25 -138
-89 -231 -212 -93 -123 -144 -180 -186 -205 -23 -15 -48 -52 -95 -145 -35 -69
-69 -126 -76 -126 -16 0 -55 -43 -55 -62 0 -34 -64 -139 -139 -228 -80 -94
-131 -180 -131 -219 0 -26 -14 -38 -112 -102 -148 -96 -228 -217 -236 -359 -4
-68 -1 -82 26 -140 16 -36 36 -99 45 -141 10 -50 38 -123 82 -215 87 -182 117
-313 83 -356 -9 -10 -55 -21 -138 -33 -157 -22 -273 -55 -370 -106 -86 -44
-103 -63 -237 -254 -50 -71 -100 -139 -112 -149 -12 -11 -21 -28 -21 -38 0
-24 -16 -56 -43 -86 -29 -32 -49 -29 -45 7 2 22 -4 35 -24 50 -39 31 -64 91
-94 226 -23 104 -25 126 -15 168 16 72 13 137 -10 213 -28 90 -120 274 -227
454 -48 80 -94 158 -102 174 -14 28 -23 31 -180 63 -153 32 -180 34 -375 36
-197 3 -213 4 -258 26 -26 13 -49 26 -51 30 -2 3 -9 48 -15 100 -7 51 -21 112
-31 134 -11 22 -20 46 -20 53 0 9 47 10 193 6 l193 -5 36 44 c47 60 93 139
173 299 84 167 122 228 190 299 39 41 54 65 57 90 2 27 10 38 38 54 59 32 64
40 47 73 -8 16 -25 38 -37 49 -27 25 -50 67 -50 94 0 44 84 86 208 102 48 6
111 17 141 24 64 15 74 13 91 -21 8 -13 23 -27 35 -30 49 -12 292 64 346 108
36 29 59 82 59 136 0 60 -18 102 -64 150 -44 48 -77 62 -141 62 -54 0 -57 -2
-121 -61 -58 -54 -69 -60 -101 -57 -44 4 -54 24 -19 39 44 20 29 79 -20 79
-27 0 -38 13 -54 65 -29 90 -98 158 -178 176 -53 12 -175 -25 -210 -63 -38
-41 -74 -58 -122 -58 -57 0 -99 22 -177 93 -90 81 -138 101 -222 94 -36 -4
-95 -16 -129 -27 -68 -21 -157 -27 -167 -10 -4 6 12 41 34 79 32 52 41 77 41
113 0 35 15 76 69 189 38 79 90 207 116 284 27 77 56 149 65 160 26 30 40 61
40 89 0 19 -10 31 -43 51 -24 14 -49 25 -55 25 -17 0 -97 -165 -212 -440 -127
-305 -204 -468 -223 -476 -9 -3 -32 -1 -52 5 -21 5 -92 15 -159 22 -158 16
-170 20 -163 62 3 17 -1 74 -9 126 -12 83 -12 97 1 115 8 12 22 30 30 41 21
30 3 93 -56 195 -53 93 -57 106 -34 136 21 28 18 55 -15 139 -17 43 -30 94
-30 119 0 38 -5 47 -45 84 -25 22 -50 52 -56 65 -7 16 -25 29 -53 37 -22 7
-51 16 -64 21 -25 10 -95 12 -104 4z m-2639 -1390 c3 -4 9 -61 12 -128 4 -67
10 -136 14 -153 6 -27 2 -37 -28 -70 -29 -34 -36 -50 -46 -119 -16 -112 -106
-468 -119 -473 -6 -2 -29 6 -52 18 -52 27 -66 58 -86 198 -15 109 -30 149 -99
267 -20 35 -35 74 -35 93 0 29 5 35 45 52 98 42 163 118 211 245 14 38 31 73
37 77 13 9 136 2 146 -7z m4059 -262 c-2 -5 -19 -41 -38 -80 l-35 -73 -47 0
c-61 0 -101 -34 -135 -112 -27 -61 -32 -65 -66 -47 -25 13 -150 118 -155 129
-1 4 25 11 60 14 77 9 143 36 278 114 94 55 148 76 138 55z m1017 -64 c-8 -12
-32 -12 -40 1 -11 18 5 31 26 20 11 -6 17 -15 14 -21z m-3327 -1071 c7 -7 12
-25 12 -40 0 -26 -2 -28 -21 -18 -24 13 -33 34 -25 55 7 18 18 19 34 3z m5023
-305 c19 -49 13 -148 -10 -196 -27 -56 -207 -262 -229 -262 -26 0 -74 77 -79
128 -12 101 62 219 192 306 88 59 111 63 126 24z m-1 -520 c0 -71 -18 -123
-56 -161 -45 -45 -80 -42 -77 6 0 19 14 53 30 77 47 71 88 124 96 125 4 0 7
-21 7 -47z m-3426 -1354 c15 -12 31 -17 38 -12 20 12 301 13 316 0 13 -11 9
-86 -8 -131 -4 -13 10 -51 45 -121 57 -112 88 -215 84 -285 -2 -30 3 -54 16
-73 18 -28 65 -160 65 -183 0 -12 -26 -19 -165 -44 -96 -18 -312 -24 -402 -12
-66 9 -86 9 -110 -3 -42 -21 -250 -25 -263 -5 -5 8 -8 22 -5 30 2 8 9 89 15
180 6 91 13 177 16 193 7 30 16 32 84 16 49 -11 109 -4 137 16 16 12 19 35 24
216 5 195 7 203 28 221 30 23 52 23 85 -3z m3184 -86 l112 -6 0 -36 c0 -45
-27 -151 -89 -356 -27 -88 -52 -172 -55 -187 l-6 -27 -201 2 -202 2 6 131 c10
206 50 406 94 473 15 23 17 24 122 17 58 -4 157 -9 219 -13z m-604 -60 c8 -25
-7 -114 -19 -115 -28 -2 -41 88 -19 124 9 14 33 8 38 -9z m1736 -89 c139 -104
182 -130 268 -159 l67 -22 7 -164 c3 -90 11 -211 17 -269 26 -235 40 -403 36
-410 -4 -6 -422 -24 -605 -25 l-85 0 -6 170 c-3 94 -10 247 -14 340 -13 269 7
361 104 494 27 37 56 82 65 99 9 18 20 32 25 32 4 0 59 -38 121 -86z m-9238
56 c46 -11 102 -20 125 -20 33 0 49 -6 73 -30 17 -16 50 -39 73 -51 53 -27 87
-58 87 -79 0 -10 -13 -64 -30 -121 -16 -57 -30 -125 -30 -151 0 -42 4 -50 37
-77 l37 -30 -30 -12 c-45 -18 -535 -30 -553 -13 -13 11 -13 29 -2 121 12 104
73 411 92 459 10 29 16 29 121 4z m-418 -345 c-1 -149 -7 -262 -23 -390 -12
-99 -26 -242 -31 -318 -10 -144 -26 -199 -61 -218 -25 -13 -69 29 -69 67 0 15
13 115 30 223 16 108 50 346 75 529 24 183 48 338 51 344 4 6 11 3 18 -8 7
-13 11 -91 10 -229z m4594 106 l167 -6 3 -85 c1 -47 -1 -110 -5 -140 l-8 -55
-100 -1 c-59 0 -117 5 -142 13 -23 7 -76 13 -118 12 -42 -1 -81 3 -86 8 -6 6
-29 8 -52 6 -26 -3 -49 1 -60 9 -17 13 -17 18 -1 123 9 61 18 116 20 123 3 11
25 12 110 7 58 -4 181 -10 272 -14z m3289 -113 c-6 -150 -46 -498 -59 -513 -5
-5 -25 7 -51 32 -63 61 -80 67 -209 73 -5 0 -8 8 -8 19 0 42 34 109 91 177 63
77 89 126 89 169 0 15 5 36 11 48 12 24 119 126 133 127 5 0 6 -57 3 -132z
m-3545 -358 c21 -16 31 -18 59 -10 49 14 128 12 238 -6 147 -25 135 -5 127
-218 -5 -125 -11 -185 -20 -194 -11 -11 -55 -9 -257 13 -274 29 -359 41 -370
52 -4 4 -1 58 6 118 8 61 17 142 22 180 l8 70 50 6 c92 11 112 9 137 -11z
m4066 2 c8 -25 -69 -224 -149 -384 -53 -106 -57 -130 -33 -182 22 -46 15 -59
-41 -74 -36 -9 -64 -29 -124 -86 -86 -82 -118 -103 -133 -88 -7 7 -3 52 11
133 11 68 32 198 46 289 29 185 62 355 74 385 8 19 17 20 177 20 120 -1 169
-5 172 -13z m767 -103 c4 -11 4 -42 0 -70 -6 -43 -10 -49 -31 -49 -33 0 -40
23 -21 68 8 20 18 45 21 55 7 23 23 22 31 -4z m-8720 -20 c50 -7 86 -7 104 -1
31 11 127 -2 149 -20 29 -24 3 -136 -36 -157 -31 -16 -355 -14 -419 2 -33 9
-56 10 -62 4 -20 -20 -31 6 -31 72 0 45 5 72 13 80 36 29 157 38 282 20z
m5492 -41 c9 -12 105 -370 149 -553 30 -123 61 -167 132 -181 42 -9 51 -22 54
-80 l3 -49 -190 -7 c-371 -13 -1193 -14 -1207 0 -9 9 -8 64 6 249 10 131 23
313 30 405 6 92 16 171 21 176 27 25 177 36 555 42 217 3 405 7 416 8 12 1 26
-4 31 -10z m-4385 -139 c18 -31 19 -48 12 -208 -6 -163 -8 -176 -31 -210 -23
-33 -25 -43 -19 -106 3 -38 13 -95 21 -125 13 -49 13 -57 -1 -70 -13 -13 -110
-15 -729 -19 -557 -2 -719 0 -730 9 -9 7 -15 29 -15 54 0 37 31 306 48 416 l7
45 175 -1 c225 -1 237 -6 286 -106 18 -40 36 -88 40 -108 12 -76 14 -81 76
-121 91 -58 198 -89 312 -89 113 0 163 16 221 69 49 45 83 64 143 80 84 23 97
64 70 218 -11 66 -10 70 21 141 18 41 35 90 38 110 10 75 23 80 55 21z m6252
-7 c3 -5 -12 -96 -33 -203 -21 -107 -44 -227 -51 -267 -11 -64 -18 -80 -55
-122 -24 -27 -46 -58 -50 -69 -14 -44 -52 -17 -62 43 -4 29 -12 37 -44 50 -21
9 -83 20 -137 25 -54 5 -114 16 -135 24 l-36 16 2 59 c1 54 -3 65 -41 123 -23
36 -43 76 -44 89 -3 24 0 25 54 26 92 2 130 11 274 64 74 28 145 50 159 50 16
0 32 11 47 30 12 17 36 40 53 50 30 20 90 27 99 12z m1378 -112 c3 -25 7 -169
7 -321 1 -244 -1 -278 -15 -283 -9 -3 -69 -6 -135 -6 -99 0 -121 3 -126 15 -7
20 73 502 95 569 16 49 19 51 67 63 85 20 99 15 107 -37z m876 -143 c12 -14
23 -77 47 -277 9 -69 18 -137 21 -152 5 -22 2 -28 -17 -33 -13 -3 -188 -4
-389 -3 l-365 3 -11 220 c-7 121 -10 223 -7 228 2 4 120 8 261 8 141 1 291 5
332 9 41 4 85 7 96 8 12 1 26 -4 32 -11z m-5551 -52 c102 -18 182 -42 202 -60
11 -11 12 -33 2 -133 -6 -66 -11 -140 -11 -165 0 -29 -5 -47 -14 -50 -28 -11
-405 -28 -541 -25 l-140 3 3 25 c25 197 62 414 73 422 19 13 319 1 426 -17z
m-4662 -117 c32 -9 47 -18 50 -33 3 -11 -1 -76 -8 -145 l-12 -125 -65 -6 c-36
-4 -69 -3 -74 1 -7 7 19 205 39 298 6 26 9 26 70 10z"/>
</g>
</svg>
